<?xml version="1.0" encoding="UTF-8" standalone="no"?>
<svg
   id="new_logo"
   data-name="new logo"
   viewBox="0 0 43.427734 80"
   version="1.1"
   sodipodi:docname="8thWall_logo.svg"
   width="43.427734"
   height="80"
   inkscape:version="1.4.2 (f4327f4, 2025-05-13)"
   xmlns:inkscape="http://www.inkscape.org/namespaces/inkscape"
   xmlns:sodipodi="http://sodipodi.sourceforge.net/DTD/sodipodi-0.dtd"
   xmlns="http://www.w3.org/2000/svg"
   xmlns:svg="http://www.w3.org/2000/svg">
  <sodipodi:namedview
     id="namedview7"
     pagecolor="#ffffff"
     bordercolor="#000000"
     borderopacity="0.25"
     inkscape:showpageshadow="2"
     inkscape:pageopacity="0.0"
     inkscape:pagecheckerboard="0"
     inkscape:deskcolor="#d1d1d1"
     inkscape:zoom="4.452523"
     inkscape:cx="143.73873"
     inkscape:cy="62.773399"
     inkscape:window-width="2560"
     inkscape:window-height="1494"
     inkscape:window-x="-11"
     inkscape:window-y="-11"
     inkscape:window-maximized="1"
     inkscape:current-layer="new_logo" />
  <defs
     id="defs1">
    <style
       id="style1">
      .cls-1 {
        fill: #7611b6;
      }
    </style>
  </defs>
  <path
     class="cls-1"
     d="M 41.308838,9.2202912 23.827881,0.43263225 c -1.350342,-0.576843 -2.877686,-0.576843 -4.228271,0 L 2.118896,9.2202912 C 0.878051,9.9336702 0.081054,11.225113 0,12.654068 V 32.69838 c 0.079346,1.429382 0.876709,2.721619 2.118896,3.433594 l 5.580933,2.83783 2.109497,1.06897 -2.109497,1.021606 -5.580933,2.83783 C 0.887573,44.602983 0.091796,45.878374 0,47.293962 v 20.053833 c 0.079102,1.427185 0.876953,2.716553 2.118896,3.424377 l 17.480713,8.787598 c 1.348389,0.586975 2.880127,0.586975 4.228271,0 l 17.480957,-8.787598 c 1.241943,-0.707825 2.039795,-1.997192 2.118896,-3.424377 V 47.293962 c -0.07935,-1.429382 -0.876709,-2.721558 -2.118896,-3.433594 l -5.581055,-2.837769 -2.118896,-1.059387 2.118896,-1.069031 5.581055,-2.762207 c 1.242188,-0.711975 2.039551,-2.004211 2.118896,-3.433594 V 12.654068 C 43.346556,11.225052 42.549803,9.9336702 41.308837,9.2202912 Z M 32.73877,62.230362 c -0.0293,0.536011 -0.328369,1.020386 -0.794678,1.286438 l -9.459351,4.729553 c -0.507446,0.217834 -1.081787,0.217834 -1.589233,0 L 11.436279,63.5168 c -0.466187,-0.266052 -0.765503,-0.750427 -0.794678,-1.286438 v -9.818787 c 0.02918,-0.536011 0.328491,-1.020569 0.794678,-1.286377 l 9.459229,-4.729797 c 0.504028,-0.233215 1.085205,-0.233215 1.589233,0 l 9.459351,4.729797 c 0.466309,0.265808 0.765381,0.750366 0.794678,1.286377 z m 0,-34.639954 c -0.03076,0.5354 -0.32959,1.019165 -0.794678,1.286377 l -9.459351,4.729614 c -0.504028,0.233398 -1.085205,0.233398 -1.589233,0 l -9.459229,-4.729614 c -0.464966,-0.267212 -0.763794,-0.750977 -0.794678,-1.286377 v -9.828369 c 0.0343,-0.534302 0.332275,-1.016602 0.794678,-1.286377 l 9.459229,-4.729736 c 0.507446,-0.217712 1.081787,-0.217712 1.589233,0 l 9.459351,4.729736 c 0.462402,0.269775 0.760498,0.752075 0.794678,1.286377 z"
     id="path2" />
</svg>
